<svg xmlns="http://www.w3.org/2000/svg" width="482" height="442" viewBox="0 0 361.5 331.5"><g fill="#02192b"><path d="m57.0033 181.668 48.1624.0345 51.5691-39.86h87.565l-12.989 39.86h38.9543l12.9059-39.86h43.8977l32.653-25.2865h-68.2554L328.9316 1.489h-39.002L141.2131 116.556H82.423l16.2156-49.8037-97.0993 75.0885H108.506zm216.759-130.3408-21.2008 65.2297h-63.124zM97.3809 291.3325h2.991v-9.2987H110.91v-2.7002h-10.538v-6.3076h11.4936v-2.7003H97.3809zm23.7338-18.434h5.2482v18.4305h2.998v-21.013h-8.2462zm21.1636-3.2082c-2.1117 0-3.642 1.3848-3.642 3.642 0 2.2363 1.5302 3.642 3.642 3.642 2.091 0 3.642-1.4056 3.642-3.642 0-2.2571-1.551-3.642-3.642-3.642m0 6.64c-1.7102 0-2.9842-1.1217-2.9842-2.998 0-1.8902 1.274-3.0188 2.9842-3.0188 1.6964 0 2.9496 1.1286 2.9496 3.0188 0 1.8763-1.2532 2.998-2.9496 2.998"/><path d="M143.8913 272.5617c0-.8031-.5262-1.2047-1.544-1.2047h-1.5856v3.9536h.8724v-1.4748h.547l.8378 1.4748h.9486l-.914-1.6202c.547-.166.8378-.547.8378-1.1286m-1.5094.5608h-.7478v-1.0524h.7478c.4154 0 .6024.2008.6024.5055 0 .3462-.187.547-.6024.547m21.1841-.1001h7.2632v18.3064h2.9911v-18.3064h7.2563v-2.7071h-17.5104zm27.3852 18.3099h14.4847v-2.7071h-11.4867v-6.5916h10.5311v-2.7002h-10.5311v-6.3076h11.4867v-2.7003h-14.4847zm30.7351-21.0041-7.4847 21.0077h3.185l1.911-5.5114h9.1047l1.904 5.5114h3.185l-7.5123-21.0077zm-1.4332 12.7953 3.5935-10.3789 3.6003 10.379zm34.384 5.94-5.9822-18.7424h-5.1305v21.0077h2.998V273.12l5.823 18.209h4.5835l5.8853-18.4305v18.4305h2.998v-21.0077h-5.193zM1.5241 245.1944h9.8111l5.186-5.8507h28.1456l5.1928 5.8506h9.8112l-29.0726-31.7525zm19.969-11.3898 9.1048-10.2472 9.1048 10.2472zm192.8019-19.3809h-8.3086v30.783h8.3086zm69.1807 18.9835-34.39-18.9994h-8.3987v30.783h7.6994v-22.7376l42.8732 23.6168v-31.6622h-7.7823zM85.842 214.4237h-8.3156v30.783h37.7826l2.3264-5.539h-31.795zm240.1205 25.2404v-7.346h33.7324v-5.5391h-33.7324v-6.82h33.7324v-5.5391H317.653v30.783h41.5988l1.544-5.5391zm-155.2887-25.2404h-35.5741v30.783h8.3086V234.918h26.871c9.9842 0 13.8547-4.182 13.8547-10.3788 0-5.9822-4.2236-10.1157-13.46-10.1157m-1.9803 14.9486h-25.2865v-9.4095h25.244c5.0128 0 6.5499 1.537 6.5499 4.7981 0 2.8527-2.1532 4.6114-6.5084 4.6114"/></g><path fill="#2173b8" d="m154.7213 324.62-6.6676 5.269h24.1024l6.6676-5.269z"/><path fill="#fffffd" d="m178.8273 324.62-6.6676 5.269h11.2443l6.6677-5.269z"/><path fill="#e12319" d="m190.0827 324.62-6.6677 5.269h24.1911l6.6676-5.269z"/></svg>
