<svg xmlns="http://www.w3.org/2000/svg" xml:space="preserve" id="Camada_1" x="0" y="0" viewBox="0 0 750.8 505.3"><path id="Logo" d="M376.3 210.9c-97.6 0-248.6.5-376.3 3.3v.6c127.7 2.8 285.4 3.4 382.7 3.4 36 0 218.6-.1 366.8-3.4v-.6c-102.1-2.2-234.7-3.3-373.2-3.3M708 0H430.8c-5 0-12-.1-19.4 7.3-7 7-4.9 14-16.5 14h-40.4c-11.6 0-9.5-6.9-16.5-14C330.6-.1 323.6 0 318.6 0H41.3c-9.5 0-13.7 8.4-9.1 15.9l5 8.3c2.7 4.6 6.2 5.3 8.8 5.8 2.4.5 3.8.8 5.7 4l4.4 7.7c3.4 6.3 7.5 7.1 10.5 7.6 2.4.5 4.5.6 7.5 6 3.2 5.8 7.5 13.1 17.6 16.2 0 0 103.5 30.2 103.6 30.2 10.8 3.5 13.5 7.4 16.7 12 1.7 2.4 6.8 11 20.8 14.8l98.5 26.6c9.2 2.5 15.7-1 20.2-5l17.9-16.9c4.6-4.3 6.5-4.3 11.1 0l17.9 16.9c4.5 4 10.9 7.5 20.2 5l98.5-26.6c14-3.8 19.1-12.4 20.8-14.8 3.2-4.6 5.9-8.5 16.7-12l103.6-30.2c10.1-3 14.4-10.3 17.6-16.2 2.9-5.4 5.1-5.6 7.5-6 3-.6 7.1-1.3 10.5-7.6l4.4-7.7c1.8-3.2 3.3-3.5 5.7-4 2.6-.5 6.1-1.2 8.8-5.8l5-8.3c4-7.5-.2-15.9-9.7-15.9M41.5 17.2l-3-5c-.9-1.5-1.5-4.9 2.8-4.9h277.3c5.6 0 11.9-.1 18 10.5.8 1.4 1.7 3 2.9 4.5h-281c-11.4.1-13.6.1-17-5.1M221.3 28h306.8v48.1H221.3zM63.5 39.8c-2.6-2.6-4.3-8-6.6-11.2l159-.7v7L81.4 42.7c-10.6.8-14.9.2-17.9-2.9m20.8 18.3c-1.5-1.9-2.7-4.1-3.9-6.2-.6-1.1-1.2-2-1.8-2.8 1.9-.1 2.3-.2 5.9-.4l131.2-8.1v7.5L112 59.2c-13.9 1.5-23.4 3.6-27.7-1.1m35.5 14.1c-7.6-2.2-14.2-4.1-18.9-5.5 12.6-1.5 114.8-12.9 114.8-12.9v8.3l-66.4 10.7c-7.7 1.3-16.9 2.8-29.5-.6m46.1 13.5c-6.7-1.9-13.9-4-21-6.1 1.9-.3 3.2-.5 5.4-.8 6.7-1.1 65.5-10.9 65.5-10.9v9s-24.6 7-24.7 7c-.2-.1-15.4 4.5-25.2 1.8m31.3 9.1c-1-.3-5.5-1.6-12.1-3.5 4.3-.8 7-1.7 7.6-1.9.4-.1 26.8-7.8 26.8-7.8h30l-27.7 12.9c-8.9 3.4-16.7 2.4-24.6.3m27.6 22.3c-3.3-2.3-5.1-4.8-7-7.5-1.6-2.3-3.2-4.6-5.8-7 .6 0 3.4-.2 6.5-1 3.3-.8 10.5-3.9 10.5-3.9l33.3-16.2h22.2l-43.7 30.9c-6.6 4.5-11.9 6.1-16 4.7m33 10.7-21.4-5.8c2.9-1.2 5.7-2.8 8-4.3 2.2-1.5-.3.4 50.3-36.2h18.6l-34.2 35c-6.1 6.2-12.7 13-21.3 11.3m33.7 9.2-20.1-5.4c5.5-3.2 10.4-8.6 12.3-10.5l38-39.4h16.6L308 129c-4.9 7.4-10.6 9-16.5 8m35.2 9.5-21.4-5.8c1-.7 4.8-3 8.4-8.8l31.7-50.4h14.4s-18.6 54.6-19.9 57.3c-3.7 8.1-8 8.7-13.2 7.7m76.3-1.7L385.3 128c-7.4-7-13.7-7-21.2 0l-17.7 16.8c-1.4 1.2-2.7 2.1-4.1 2.8 3.3-4.1 5.2-9.8 6.4-13.5l17.6-52.5h16.8l17.6 52.5c1.3 3.9 3.2 9.5 6.4 13.5-1.4-.7-2.7-1.6-4.1-2.8m19.6 1.7c-5.2 1-9.5.4-13.2-7.6-1.3-2.8-19.9-57.3-19.9-57.3h14.4l31.7 50.4c3.6 5.7 7.3 8.1 8.4 8.8zm35.3-9.5c-5.9 1.1-11.6-.6-16.6-8.1L411 81.6h16.7l38 39.4c1.9 2 6.7 7.3 12.3 10.5zm33.7-9.2c-8.7 1.7-15.3-5.2-21.3-11.3l-34.2-35h18.6s48.1 34.7 50.3 36.2c2.3 1.5 5 3.1 8 4.3zm39.9-18.1c-1.9 2.7-3.6 5.2-7 7.5-4 1.3-9.4-.3-16.1-4.6-1.9-1.2-43.7-30.9-43.7-30.9h22.2s25.7 12.7 33.3 16.2c4.3 2 9.8 4.5 17 4.9-2.5 2.2-4.1 4.6-5.7 6.9m20.7-14.9c-7.9 2.1-15.7 3.1-24.6-.3-3.2-1.2-27.7-12.9-27.7-12.9h30s26.4 7.7 26.8 7.8c.7.2 3.3 1 7.6 1.9-6.6 1.9-11.1 3.2-12.1 3.5m31.3-9.1c-9.8 2.7-25.2-1.9-25.2-1.9-.1 0-24.7-7-24.7-7v-9s58.9 9.8 65.5 10.9c2.2.4 3.4.6 5.4.8-7.2 2.1-14.3 4.2-21 6.2m46.1-13.5c-12.5 3.3-21.8 1.8-29.5.6-6.6-1.1-66.5-10.7-66.5-10.7v-8.3l114.8 12.9c-4.6 1.4-11.3 3.3-18.8 5.5M669 52c-1.1 2.1-2.4 4.2-3.9 6.2-4.3 4.7-13.8 2.6-27.8 1.1L533.6 48.2v-7.6s129.6 8 131.2 8.1c3.6.2 4 .3 5.9.4-.6.9-1.2 1.8-1.7 2.9m14.9-11.3c-5.1 3.2-10.8 2.3-27.9 1.3l-122.4-7.1v-7l158.9.7c-3.2 4.6-4.1 9.3-8.6 12.1m27-28.5-3 5c-3.4 5.2-5.6 5.2-17 5.2h-281c1.2-1.5 2.1-3.1 2.9-4.5 6.1-10.6 12.4-10.5 18-10.5h277.3c4.3-.1 3.7 3.3 2.8 4.8M397.8 66.4c-.7-8.7-1.2-13.8-1.6-17.3-4.7 8.5-6.7 12.5-8.6 16.9h-1.9c-4.7-9.5-5.2-10.6-6.5-13.1-.4-.8-1-1.8-1.9-3.6-.4 3.4-1.1 10.2-1.6 17.1h-4.8c1.4-10 3.6-27 3.8-28.4h2.9s6.9 13.7 9.9 18.9c3.5-6.4 5.7-10.9 10.2-18.9h2.6c.5 4.1 2 17.1 3.4 28.4zM485.4 38h-5.6v28.4h5.6zm-16.9 28.4V42.2c4.2.1 6.4.3 8.5.6V38h-22.9v4.8c2.4-.3 4.8-.5 8.8-.6v24.2zm-177.4 0V42.2c4.2.1 6.4.3 8.5.6V38h-22.9v4.8c2.4-.3 4.8-.5 8.8-.6v24.2zm65.7 0V38h-4.4v18.3L335.5 38h-3.2v28.4h4.5V47.2L354 66.4zm-98.9-8v6.3c1.8 1.1 4 2.4 7.7 2.4 6.1 0 11.6-3.4 11.6-9.3 0-1.9-.6-5.3-4.9-7.2-3.6-1.6-5.9-2-7.5-3.3-2.8-2.4-.5-6.2 3.3-6.2 1.2 0 4 .3 4.8 3.1h2.1V39c-2-.9-4.5-1.8-7.1-1.8-2.3 0-4.5.7-6.3 2-4.3 3.2-5.5 9.6.6 13.3 3.9 2.3 9.1 2.1 9.3 6.3.1 3.1-2.9 4.3-5.1 4.3-4.5 0-5.9-3.9-6.2-4.7zm-.1 8-12.5-29h-2.4l-12.9 29h5.3c.7-2.3 1.2-4.1 2.8-8h10.2c1.3 3.1 2.2 5.9 3 8zm-18.1-11.7c.6-1.4.7-1.7 3.5-8.3 2.7 6.3 2.9 6.7 3.5 8.3zm88.9-2.5c0-10-7.5-15.2-14.8-15.2S299 42.1 299 52.2c0 10 7.5 15.2 14.8 15.2 7.4 0 14.8-5.1 14.8-15.2m-14.7 11.4c-4.5 0-8.5-4.2-8.5-11.4 0-7.5 4.3-11.4 8.5-11.4s8.5 3.9 8.5 11.4-4.3 11.4-8.5 11.4m120 2.8h5.6V54.7h1.4l9.5 11.7h7l-10.6-12.5c1.5-.6 2.8-1.4 3.8-2.4 2.9-2.9 3.3-7.9 0-11.2-1.7-1.7-3.6-2.6-8.4-2.6 0 0-6.5.1-8.2.2zm5.6-25c.7-.1 1.3-.1 1.9-.1 5.8 0 6 4.3 6 4.9 0 3-2.6 5.7-7.9 4.8zm-7.1 25-12.5-29h-2.4l-12.9 29h5.3c.7-2.3 1.2-4.1 2.8-8h10.1c1.3 3.1 2.2 5.9 3 8zm-18-11.7c.6-1.4.7-1.7 3.5-8.3 2.7 6.3 2.9 6.7 3.5 8.3zm101.3 11.7V38h-4.4v18.3l-17-18.3h-3.2v28.4h4.5V47.2l17.2 19.2zm-192.8 388h-3.6l-21.5 48.3h8.2c.8-2.9 1.8-6.2 4.7-13.5h17.6c2.1 5.2 3.8 10 5.1 13.5h10.3zm-3.4 14c5.2 12 5.3 12 6.5 15.2h-13c1.4-3.1 1.5-3.2 6.5-15.2m331.3-14h-3.5l-21.5 48.3h8.2c.8-2.9 1.8-6.2 4.7-13.5h17.6c2.1 5.2 3.8 10 5.1 13.5h10.3zm-3.3 14c5.2 12 5.3 12 6.5 15.2h-13c1.4-3.1 1.4-3.2 6.5-15.2m-448.1 34.3c-1.2-15-2.1-24-2.8-30-8.1 14.6-11.6 21.7-14.9 29.3H179c-8.2-16.8-9.1-18.4-11-21.9-.8-1.5-1.7-3.2-3.7-7.1-.4 3-1.8 16.2-2.8 29.7h-7.4c2.4-17 6.1-45.7 6.3-47.3h4.4c.7 1.3 1.3 2.6 1.9 3.9 5.4 10.8 9.7 19.4 14.9 28.3l.1.1.1-.1c2.3-4.3 4.5-8.3 6.5-12.2 3.2-6 6.5-12.2 10.9-20h3.9c.2 1.5 2.9 24.9 5.6 47.3zm520.9 0c-1.2-15-2.1-24-2.8-30-8.1 14.6-11.6 21.7-14.9 29.3h-2.7c-8.2-16.8-9.1-18.4-11-21.9-.8-1.5-1.7-3.2-3.7-7.1-.3 3-1.8 16.2-2.8 29.7H675c2.4-17 6.1-45.7 6.3-47.3h4.4c.7 1.3 1.3 2.6 1.9 3.9 5.4 10.8 9.7 19.4 14.9 28.3l.1.1.1-.1c2.3-4.3 4.5-8.3 6.5-12.2 3.2-6 6.5-12.2 10.9-20h3.9c.2 1.5 2.9 24.9 5.6 47.3zm-641.6 1.7c-9.9 0-15.7-5.2-17.1-6.6-4-3.8-7.5-9.9-7.5-18.7s3.5-14.9 7.5-18.7c1.4-1.3 7.2-6.6 17.1-6.6 6 0 17.5 2.5 22.5 14.5 1.4 3.2 2 6.9 2 10.8 0 8.8-3.5 14.9-7.5 18.7-1.4 1.3-7.2 6.6-17 6.6m0-5.7c7.3 0 14.8-6.8 14.8-19.7s-7.4-19.7-14.8-19.7c-7.3 0-14.8 6.8-14.8 19.7s7.4 19.7 14.8 19.7m312.7 5.7c-9.9 0-15.7-5.2-17.1-6.6-4-3.8-7.5-9.9-7.5-18.7s3.5-14.9 7.5-18.7c1.4-1.3 7.2-6.6 17.1-6.6 6 0 17.5 2.5 22.5 14.5 1.4 3.2 2 6.9 2 10.8 0 8.8-3.5 14.9-7.5 18.7-1.3 1.3-7.1 6.6-17 6.6m0-5.7c7.3 0 14.8-6.8 14.8-19.7s-7.4-19.7-14.8-19.7c-7.3 0-14.8 6.8-14.8 19.7s7.5 19.7 14.8 19.7m-279.7-43.4c2.6-.2 13.3-.3 13.5-.3 8.1 0 11.3 1.6 14 4.3 2.6 2.6 3.9 5.9 3.8 9.4-.1 3.3-1.5 6.6-3.8 8.9-2.5 2.5-5.6 3.7-6.7 4.1l17.8 20.9h-10.8l-16-19.8h-2.9v19.8h-8.8zm12.3 5c-1.1 0-2.3.1-3.5.3h-.1v16.7h.1q1.95.3 3.6.3c7.1 0 10.3-4.5 10.3-8.8 0-.6-.1-3.5-2.4-5.8-1.8-1.8-4.5-2.7-8-2.7m143.6 42.4v-47.3h8.8v41.1H296v6.2zm244.7-45.4h-3.6v-1.9h9.6v1.9h-3.7v10.4h-2.3zm18.5 5.4c-.1-1.6-.2-3.5-.2-5.2h-.1c-.4 1.5-.9 3.2-1.5 4.7l-1.7 5.4h-1.9l-1.7-5.3c-.5-1.6-.9-3.3-1.3-4.8-.1 1.6-.1 3.6-.2 5.3l-.3 5h-2.2l.8-12.3h3.1l1.7 5c.5 1.4.8 2.9 1.2 4.3h.1c.3-1.3.8-2.9 1.3-4.3l1.8-4.9h3.1l.7 12.3h-2.3zm-69.9 40c-2-2.5-16.1-18.1-29.6-33v33h-6.8v-47.3h4.8l29.1 31.6v-31.6h6.8v47.3zm103.5 0v-40.9c-7.4.1-12 .6-14.9.9v-7.4h38v7.4c-2.2-.3-6.5-.9-14.3-1v40.9zm-79.8-6.3v-15.3h16.9v-5.8h-16.9v-14c4 0 9.6 0 19.3.6v-6.7h-28.1v47.3h28.9v-7c-6.4.6-13.7.9-20.1.9m117.9 0v-15.3h16.9v-5.8h-16.9v-14c4 0 9.6 0 19.3.6v-6.7h-28.1v47.3h28.9v-7c-6.4.6-13.8.9-20.1.9m-353.1-41c.3 18.2.2 25.4.2 25.4 0 5.9-.4 16.6-11.8 16.6-4.1 0-12.2-.7-12.2-14.2 0-12.2.3-27.3.3-27.8h-9.2v27.8c0 19.4 15.6 20.2 19.5 20.2 11.2 0 20-5.1 20.2-20.6l.1-27.4zm-200.8 6.7v-6.7H19.8v47.4h8.8v-20.3h17.8v-6.2H28.6v-14.7c8.8-.1 14 .1 20 .5m624-188.6c-31.4 0-57 25.6-57 57s25.6 57.1 57 57.1 56.7-25.6 56.7-57.1c0-31.4-25.3-57-56.7-57m0 88.1c-17.3 0-31.1-14.1-31.1-31.1s13.8-30.8 31.1-30.8c17 0 30.8 13.8 30.8 30.8s-13.8 31.1-30.8 31.1m-208.8-89.4c-12.5 0-25.3 2.6-35.6 6.7-8.3-4.8-16.3-6.7-27.9-6.7-14.4 0-29.1 1.9-45.2 7.4l-2.9 1v104.8h28.5v-85.9c5.8-1.9 10.3-2.6 16-2.6 14.1 0 18.3 4.5 18.3 19.2v69.2h28.8v-71.1c0-6.4-.3-10.6-1.3-14.4 5.8-1.9 10.3-2.9 15.4-2.9 13.5 0 19.6 6.1 19.6 19.2v69.2H506v-71.5c0-14.1-2.3-22.4-8.7-29.5-7-7.6-18.8-12.1-33.5-12.1m114.3 90.6c-19 0-29.9-11.8-29.9-32.4 0-21.1 11-33.2 30.2-33.2 4 0 7.3.4 10.5 1.4 0 0 5.9 1.7 11.1 5.7l12.1-20.7c-6.6-5.5-14.3-7.9-16.9-8.5-7.4-2.2-18.3-2.6-18.3-2.6-34.3 0-57.3 23.8-57.3 59.1 0 34 21.8 55.9 55.7 55.9 0 0 22.7 1 37.9-13.1L599 356.2c-7.8 4.9-13.2 6.6-20.9 6.6m-371.8-89.6c-40.7 0-59.6 17.9-59.6 56.1v56.1h29.2V329c0-19.2 10.9-31.1 27.9-31.1 7.1 0 12.5 1.3 16.3 2.2l6.7-25.3c-11.3-1.6-20.5-1.6-20.5-1.6m129.3 52.9v59.3h-39.1c-26.9 0-38.8-1.9-52.9-11.2-12.2-8.3-18.9-24-18.9-44.5 0-28.2 18.6-56.7 59.6-56.7 33.3-.1 51.3 18.5 51.3 53.1m-28.5 3.2c0-21.5-8.3-32-25-32-17 0-27.9 12.5-27.9 31.4 0 22.8 10.9 32.7 35.2 32.7H307v-32.1zm-176.3-3.2v59.3H92c-26.9 0-38.8-1.9-52.9-11.2-12.2-8.3-18.9-24-18.9-44.5 0-28.2 18.6-56.7 59.6-56.7 33.4-.1 51 18.5 51 53.1m-29.5 3.2c0-21.8-7.7-32-24.7-32s-27.9 12.5-27.9 31.4c0 22.8 10.9 32.7 35.2 32.7h17.3z"/></svg>
