<svg xmlns="http://www.w3.org/2000/svg" id="svg2" width="1132" height="155"><g id="layer1" transform="translate(0 -897.3622)"><g id="g3835" transform="translate(188.1574 381.615)"><path id="path3777" d="m-52.9378 602.859-5.856-13.1174h-90.1817l10.3064-49.19 87.8394.2342 13.1173-14.0543h-93.461c-11.4358.5884-18.5426 5.506-22.487 13.5858l-8.6667 40.7575c-3.4518 14.5724 2.5959 21.3417 16.6309 21.5499z" style="fill:#fff;fill-opacity:1;stroke:#013d21;stroke-width:1px;stroke-linecap:butt;stroke-linejoin:miter;stroke-opacity:1"/><path id="path3779" d="M33.7652 528.578-42.5 603.4524l19.969-.0774 18.781-17.5935 76.3283.4688 10.3904 17.5622.125.25.3126-.937 19.188-.0158-45.0003-74.5472c-7.6309-4.051-15.5732-4.0538-23.8288.0155zm9.5243 10.1353 21.3094 34.1381-55.2064-.2404z" style="font-size:medium;font-style:normal;font-variant:normal;font-weight:400;font-stretch:normal;text-indent:0;text-align:start;text-decoration:none;line-height:normal;letter-spacing:normal;word-spacing:normal;text-transform:none;direction:ltr;block-progression:tb;writing-mode:lr-tb;text-anchor:start;baseline-shift:baseline;color:#000;fill:#fff;fill-opacity:1;stroke:#013d21;stroke-width:1px;stroke-opacity:1;marker:none;visibility:visible;display:inline;overflow:visible;font-family:Sans;-inkscape-font-specification:Sans"/><path id="path3785" d="M137.2636 603.5617h16.1625l13.1173-63.2444h36.0727l15.694-13.5858H105.6415l-3.2794 13.5858h47.5504z" style="fill:#fff;fill-opacity:1;stroke:#013d21;stroke-width:1px;stroke-linecap:butt;stroke-linejoin:miter;stroke-opacity:1"/><path id="path3787" d="m345.7357 526.9657-93.9296.2343c-9.2204.9572-18.0901 4.7744-22.9553 13.82l-9.1353 42.3972c-2.8714 15.9444 6.2879 19.4478 18.2706 19.9102h91.5871l-9.1352-13.82-85.7313.2342 3.9821-17.3336h85.2627l2.5766-14.5228h-85.497l3.9821-17.0994 84.7943.2342z" style="fill:#fff;fill-opacity:1;stroke:#013d21;stroke-width:1px;stroke-linecap:butt;stroke-linejoin:miter;stroke-opacity:1"/><path id="path3789" d="m350.875 603.453 16.6403.1408 5.3284-22.9687 79.7813.25-4.3125 22.5934 16.1875.1253 4-15.375c-.3819-5.1054 1.6918-10.737-6.9215-14.0785 8.0497-3.587 9.8935-8.7671 12.2027-13.8278l.0625-.0937.0312-.0937 2.1103-12.4073c3.6757-14.2727-2.8234-19.6977-13.454-21.5302l-95.5049.6954zm28.9774-63.1014h81.3511l-5.1312 26.2226-81.6167.1656z" style="font-size:medium;font-style:normal;font-variant:normal;font-weight:400;font-stretch:normal;text-indent:0;text-align:start;text-decoration:none;line-height:normal;letter-spacing:normal;word-spacing:normal;text-transform:none;direction:ltr;block-progression:tb;writing-mode:lr-tb;text-anchor:start;baseline-shift:baseline;color:#000;fill:#fff;fill-opacity:1;stroke:#013d21;stroke-width:1px;stroke-opacity:1;marker:none;visibility:visible;display:inline;overflow:visible;font-family:Sans;-inkscape-font-specification:Sans"/><path id="path3797" d="m502.9096 527.6685-15.4598 75.4247h14.757l6.5587-30.6852 83.3888.7027-7.0271 30.2167H599.65l16.6309-74.9562-14.9913-.2343-6.5586 31.1537-82.9204-.7027 6.5587-30.451z" style="fill:#fff;fill-opacity:1;stroke:#013d21;stroke-width:1px;stroke-linecap:butt;stroke-linejoin:miter;stroke-opacity:1"/><path id="path3799" d="m694.3171 528.578-76.2652 74.8744 19.969-.0775 18.781-17.5934 76.3283.4688 10.3905 17.5622.125.25.3125-.937 19.188-.0158-45.0003-74.5473c-7.6309-4.051-15.5732-4.0537-23.8288.0155zm9.5243 10.1353 21.3095 34.1381-55.2065-.2404z" style="font-size:medium;font-style:normal;font-variant:normal;font-weight:400;font-stretch:normal;text-indent:0;text-align:start;text-decoration:none;line-height:normal;letter-spacing:normal;word-spacing:normal;text-transform:none;direction:ltr;block-progression:tb;writing-mode:lr-tb;text-anchor:start;baseline-shift:baseline;color:#000;fill:#fff;fill-opacity:1;stroke:#013d21;stroke-width:1px;stroke-opacity:1;marker:none;visibility:visible;display:inline;overflow:visible;font-family:Sans;-inkscape-font-specification:Sans"/><path id="path3801" d="m795.5251 604.0017-16.6946-.052 14.655-68.232c6.7454-12.2737 27.3123-13.6748 33.6833.7194l26.613 55.2803 49.5498-56.4446c4.2678-8.2213 33.1716-17.113 31.4114 3.4783l-18.987 96.8161c-2.281 9.1174-8.5635 13.5662-18.7948 13.4082H277.0637l2.9245-14.163 615.2483-.03c3.7882.8236 5.8008-1.016 6.0555-5.4927l19.184-92.3135-56.274 62.5015c-10.154 9.1104-18.5685 9.7159-24.7489-.6009l-30.4225-62.0613z" style="fill:#fff;fill-opacity:1;stroke:#013d21;stroke-width:1px;stroke-linecap:butt;stroke-linejoin:miter;stroke-opacity:1"/><path id="path3803" d="m-180.8696 663.6251 8.4472-38.0952c2.47-3.919 5.6827-7.2602 12.0911-8.116l56.646.497-9.9379 9.441h-48.8613l-2.1532 8.4471 49.6895-.1656-2.6501 9.6066-48.53-.1656-3.644 18.385z" style="fill:#fdcf35;fill-opacity:1;stroke:#013d21;stroke-width:1px;stroke-linecap:butt;stroke-linejoin:miter;stroke-opacity:1"/><path id="path3805" d="m-99.2133 617.5796-9.2753 9.441h8.6128l-7.4534 35.942 10.6004-.1656 10.1035-45.0518z" style="fill:#fdcf35;fill-opacity:1;stroke:#013d21;stroke-width:1px;stroke-linecap:butt;stroke-linejoin:miter;stroke-opacity:1"/><path id="path3807" d="m-12.0911 627.1862-7.4534 35.4451h11.0973l7.1221-35.6107h20.704l9.7722-8.9441-67.412-.3313-1.6563 9.2754z" style="fill:#fdcf35;fill-opacity:1;stroke:#013d21;stroke-width:1px;stroke-linecap:butt;stroke-linejoin:miter;stroke-opacity:1"/><path id="path3809" d="m97.2257 618.2421-9.7723 9.441-50.0207-.1656-1.9876 8.2815 50.6833-.1656-2.8158 10.1035-48.6956-.3312-2.3189 8.2815 49.6895-.1656 4.969 9.6066-56.1491.3313c-3.5844-1.2829-8.8718 1.2184-8.7785-11.0973l5.4658-25.0104c2.5407-5.992 6.901-9.3556 13.4162-9.6066z" style="fill:#fdcf35;fill-opacity:1;stroke:#013d21;stroke-width:1px;stroke-linecap:butt;stroke-linejoin:miter;stroke-opacity:1"/><path id="path3811" d="m87.2719 663.4438 13.4156.1718 10.325-9.9375 43.8938.009 6.1562 9.875 13.5938-.0344-25.9844-42.728c-3.082-5.4744-11.2105-6.0042-17.8032-.0656zm62.6154-19.2035-28.4932-.009 16.8726-18.0538z" style="font-size:medium;font-style:normal;font-variant:normal;font-weight:400;font-stretch:normal;text-indent:0;text-align:start;text-decoration:none;line-height:normal;letter-spacing:normal;word-spacing:normal;text-transform:none;direction:ltr;block-progression:tb;writing-mode:lr-tb;text-anchor:start;baseline-shift:baseline;color:#000;fill:#fdcf35;fill-opacity:1;stroke:#013d21;stroke-width:1px;stroke-opacity:1;marker:none;visibility:visible;display:inline;overflow:visible;font-family:Sans;-inkscape-font-specification:Sans"/><path id="path3817" d="m175.5694 663.2939 10.9316-.1657 7.619-37.1014 17.8883 36.4389c3.4388 2.1059 6.8325 4.3472 12.4223 0l31.967-35.4451-7.2879 36.2733 10.9317.1656 7.619-39.089c.038-6.6354-8.436-12.6558-19.8757-1.4907l-27.6605 31.8012-16.3975-32.4637c-3.4147-7.0647-11.728-8.843-19.3789.9937z" style="fill:#fdce36;fill-opacity:1;stroke:#013d21;stroke-width:1px;stroke-linecap:butt;stroke-linejoin:miter;stroke-opacity:1"/></g></g></svg>
