<svg xmlns="http://www.w3.org/2000/svg" xmlns:xlink="http://www.w3.org/1999/xlink" width="120" height="30" class="injected-svg js-svg-inject" viewBox="0 0 120 30"><title>Logos / F1-logo red</title><defs><path id="path-1" d="M101.0868 30h.625v-2.8931h.0106L102.7618 30h.5406l1.0394-2.8931h.0106V30h.625v-3.7488h-.9137l-1.0081 2.935h-.0107l-1.0337-2.935h-.9244zm-3.4594-3.1819h1.1863V30h.6562v-3.1819h1.192v-.5669h-3.0345zM90 30l30-30h-18.0562L71.9443 30zm-4.3012-16.935h-36.317c-11.0681 0-13.005.5869-17.7456 5.3275C27.2024 22.8263 20.0006 30 20.0006 30h15.7318l3.7532-3.7531c2.4675-2.4675 3.74-2.7232 8.9212-2.7232h26.8338zm-54.5469 3.1881C27.8774 19.3425 20.7531 26.2631 16.9131 30H-.0001S13.5524 16.4869 21.085 9.0725C28.8456 1.685 32.7143 0 46.9487 0h51.8156L87.545 11.2188H48.0012c-10.0019 0-12.2494.693-16.8494 5.0343"/></defs><g id="Logos-/-F1-logo-red" fill="none" fill-rule="evenodd" stroke="none" stroke-width="1"><g id="Page-1"><use xlink:href="#path-1" id="Fill-1" fill="#e00"/></g></g></svg>
