<svg xmlns="http://www.w3.org/2000/svg" xml:space="preserve" id="svg2985" width="225.7" height="35.38"><g id="g2993" transform="matrix(1.25 0 0 -1.25 -14.55 467)"><path id="path4005" d="M14.04 371.2H189.8v-23.5H14.04z" style="fill:#231f20;fill-opacity:1;fill-rule:nonzero;stroke:none"/><path id="path4007" d="m94.59 368.4-2.9-11.6c0-.2-.1-.8-.1-1.1 0-.2 0-.5.1-.8H87.6v.9c-.51-.7-1.02-.9-1.7-.9h-1.53c-.68 0-1.71.3-2.13.6-.43.3-.77 1-.77 1.8 0 .3.1.8.17 1.3l.94 3.9c.26.9.85 1.8 1.19 1.8.43.3 1.28.6 1.96.6h2.3c.42 0 .85-.2 1.11-.3.1-.2.25-.3.51-.7l.59 2.7c.1.4.17.6.17.9s-.1.6-.17.9zm-8.6-11.5h1.1c.34 0 .6 0 .77.1.17.2.25.4.34.8l.94 3.7c.1.3.1.5.1.7 0 .6-.34.7-.85.7h-1.11c-.25 0-.59 0-.76-.2-.17-.1-.34-.7-.43-1.1l-.85-3.5c-.17-.5-.17-.9-.1-1.1.17-.1.43-.1.86-.1" style="fill:#fff;fill-opacity:1;fill-rule:evenodd;stroke:none"/><path id="path4009" d="M78.15 364.3c.17.1.34.3.6.4.42.2.85.2 1.36.2h2.64l-.77-3.3c-.17.2-.42.4-.68.4-.25 0-.68.1-.93.1h-1.62c-.26 0-.6 0-.85-.1-.17-.1-.43-.4-.43-.6l-1.11-4.6c-.1-.2-.17-.6-.17-1 0-.2.1-.5.17-.8h-4.42c.34.3.51.8.68 1.3.1.2.25.6.34 1l1.45 5.9c0 .2.1.5.1.8s-.1.6-.1.9h3.74z" style="fill:#fff;fill-opacity:1;fill-rule:evenodd;stroke:none"/><path id="path4011" d="M63.34 364.9h6.81c.59 0 1.45-.2 1.96-.8.25-.4.59-.9.59-1.7 0-.6-.1-1-.25-1.4l-1.02-4.2s-.18-.6-.18-1c0-.2.1-.6.18-.8h-3.92l.17.6c-.43-.5-.6-.5-1.19-.6H64.1c-.34 0-1.36.2-1.96.6-.42.2-.93.9-.93 1.8 0 .3.1.6.17.9 0 .3.1.6.1.7.26.8.68 1.6.86 1.9.42.5 1.19.7 2.38.7h3.4c.43 0 .94 0 .94.6v.3c.1.5-.85.5-1.02.5h-3.75c-.42 0-1.36-.1-1.95-.4l1.02 2.3zm4.93-5.1H66.4c-.25 0-.59 0-.76-.1-.1 0-.26-.5-.26-.8l-.34-1.4c0-.1-.1-.1-.1-.2 0-.3.17-.4.34-.5.52.1 1.79-.1 2.13.1.1 0 .17.3.26.5l.59 2.4" style="fill:#fff;fill-opacity:1;fill-rule:evenodd;stroke:none"/><path id="path4013" d="m55.25 364.9-.26-.9c.34.6.77.9 1.53.9h1.79c.77 0 1.54-.2 2.05-.8.34-.4.68-.9.68-1.7 0-.5-.17-1.3-.26-1.6l-1.02-4s-.1-.6-.1-1c0-.1 0-.5.1-.8h-4.85c.25.2.51.8.51 1 .17.3.34 1 .42 1.3l1.11 4.4c0 .3.1.7.1.8 0 .6-.6.5-.86.5h-.68c-.17 0-.59-.1-.76-.3-.1 0-.34-.5-.34-.7l-1.37-5.2s-.1-.6-.1-1c0-.2.1-.5.1-.8h-4.51c.43.6.77 1.5.94 2.3l1.45 5.9c.1.2.1.5.1.8s0 .6-.1.9h4.34" style="fill:#fff;fill-opacity:1;fill-rule:evenodd;stroke:none"/><path id="path4015" d="m49.88 364.9-2.04-8.1c0-.3-.1-.6-.1-1 0-.2 0-.5.1-.8h-4.77c.34.4.51.8.6 1.2.17.2.25.7.42 1.1l1.45 5.9c0 .3.1.5.1.8s-.1.6-.1.9z" style="fill:#fff;fill-opacity:1;fill-rule:evenodd;stroke:none"/><path id="path4017" d="m99.18 364.9-2.04-8.1c-.1-.3-.1-.6-.1-1 0-.2 0-.5.1-.8h-4.85c.34.4.51.8.59 1.2.17.2.26.7.34 1.1l1.54 5.9c0 .2.1.5.1.8s-.1.6-.17.9h4.51" style="fill:#fff;fill-opacity:1;fill-rule:evenodd;stroke:none"/><path id="path4019" d="m36.34 364.9-.25-.9c.34.6.68.9 1.53.9h3.58c.68 0 1.53-.2 2.04-.8.26-.4.6-.9.6-1.7 0-.5-.1-1.3-.17-1.6l-1.02-4s-.17-.6-.17-1c0-.1.1-.5.17-.8h-5.71c.17.2.51.8.51 1 .1.3.34 1 .43 1.3l1.1 4.4c0 .3.1.7.1.8 0 .6-.6.5-.85.5h-1.62c-.17 0-.6-.1-.77-.3-.1 0-.34-.5-.34-.7l-1.36-5.2s-.1-.6-.1-1c0-.2.1-.5.1-.8h-5.7c.42.6.76 1.5 1.02 2.3l1.36 5.7h-2.73c-.17 0-.59-.1-.76-.3-.1 0-.34-.5-.34-.7l-1.36-5.2s-.1-.6-.1-1c0-.2.1-.5.1-.8h-5.71c.43.6.77 1.5.94 2.3l1.44 5.9c.1.2.1.5.1.8s0 .6-.1.9h5.79l-.25-.9c.34.6.77.9 1.53.9h6.98" style="fill:#fff;fill-opacity:1;fill-rule:evenodd;stroke:none"/><path id="path4021" d="m101.4 355 2.9 12.2h14.5l-.5-2.3-.2-.6h-6.6l-.6-2.5h5.7l-.6-2.6h-5.7l-1-4.2z" style="fill:#ed1c24;fill-opacity:1;fill-rule:evenodd;stroke:none"/><path id="path4023" d="m119.2 364.3.7 2.9H131l-2.9-12.2h-8l2.2 9.3z" style="fill:#ed1c24;fill-opacity:1;fill-rule:evenodd;stroke:none"/><path id="path4025" d="M156.1 364.9h6.8c.6 0 1.4-.2 1.9-.8.3-.4.6-.9.6-1.7 0-.6-.1-1-.2-1.4l-1-4.2s-.2-.6-.2-1c0-.2.1-.6.2-.8h-4l.2.6c-.4-.5-.6-.5-1.2-.6h-2.4c-.3 0-1.3.2-1.9.6-.5.2-1 .9-1 1.8 0 .3.1.6.2.9 0 .3.1.6.1.7.2.8.7 1.6.8 1.9.5.5 1.2.7 2.4.7h3.4c.5 0 1 0 1 .6v.3c.1.5-.9.5-1.1.5H157c-.4 0-1.4-.1-2-.4zm4.6-5.1h-1.6c-.2 0-.6 0-.7-.1-.1 0-.3-.5-.3-.8l-.3-1.4c0-.1-.1-.1-.1-.2 0-.3.2-.4.3-.5.5.1 1.6-.1 1.9.1.2 0 .3.3.3.5z" style="fill:#fff;fill-opacity:1;fill-rule:evenodd;stroke:none"/><path id="path4027" d="m178 364.9-.1-.9c.3.6.6.9 1.5.9h1.8c.7 0 1.5-.2 2-.8.3-.4.6-.9.6-1.7 0-.5-.1-1.3-.2-1.6l-1-4s-.1-.6-.1-1c0-.1 0-.5.1-.8h-4.8c.1.2.5.8.5 1 .1.3.3 1 .4 1.3l1 4.4c.1.3.2.7.2.8 0 .6-.6.5-.8.5h-.7c-.2 0-.6-.1-.8-.3-.1 0-.3-.5-.3-.7l-.7-2.6-.7-2.6s0-.3-.1-.5v-1c.1-.2.1-.2.1-.3h-4.5c.2.2.3.7.5 1.1.2.3.3.8.4 1.2l1.1 4.4c0 .3.1.7.1.8 0 .6-.6.5-.8.5h-1.1c-.1 0-.5-.1-.7-.3-.1 0-.4-.5-.4-.7l-1.3-5.2s-.1-.6-.1-1c0-.2.1-.5.1-.8h-4.5c.4.6.7 1.5.9 2.3l1.4 5.9c.1.2.1.5.1.8s0 .6-.1.9h4.4l-.3-.9c.4.6.8.9 1.6.9z" style="fill:#fff;fill-opacity:1;fill-rule:evenodd;stroke:none"/><path id="path4029" d="M151.8 355h-6.9c-.6 0-1.4.2-1.9.7-.3.5-.6 1.1-.6 1.7 0 .7.1 1 .2 1.4l1 4.3c.5 1.1 1.2 1.8 2.2 1.8h5.2c.4 0 1.4-.2 2-.6.4-.3.9-.9.9-1.8 0-.3 0-.6-.2-1 0-.1-.1-.6-.1-.6-.2-.9-.6-1.7-.9-1.9-.4-.4-1.1-.7-2.3-.7H147c-.5 0-.9-.1-1-.6v-.3c0-.5.9-.5 1-.5h3.8c.5 0 1.3 0 1.9.4zm-4.4 6.5.2 1.1c.1.3.4.4.7.4h1.4c.4.1.4-.2.2-.6l-.1-.8c0-.4-.3-.6-.7-.6H148c-.5 0-.6.2-.6.5" style="fill:#fff;fill-opacity:1;fill-rule:evenodd;stroke:none"/><path id="path4031" d="M133.9 363h1.6l-1.3-5.5c-.4-1.3-.4-2.5 1.1-2.5h5.5l.4 1.9h-2.3c-.6 0-.8.4-.6 1l1.2 5.1h2.7l.5 1.9H140l.5 2.3h-4l-.5-2.3h-1.6z" style="fill:#fff;fill-opacity:1;fill-rule:evenodd;stroke:none"/><path id="path4033" d="M20.42 350.2v2.3h1.79v-.4h-1.28v-.5h1.11v-.5h-1.11v-.9zm10.99 1.1c0 .3 0 .4.1.6.1.1.17.3.26.4.1 0 .17.1.34.1.17.1.34.1.51.1.42 0 .68-.1.93-.3.26-.2.35-.5.35-.9 0-.3-.1-.7-.35-.8-.25-.3-.51-.4-.93-.4-.34 0-.68.1-.85.4-.26.1-.34.5-.34.8zm.51 0c0-.2.1-.4.17-.6.17-.1.34-.2.51-.2.25 0 .42.1.51.2.17.2.25.4.25.6 0 .3-.1.5-.17.6-.17.2-.34.2-.59.2-.17 0-.34 0-.51-.2-.1-.1-.17-.3-.17-.6m11.24-1.1v2.3h1.1c.26 0 .51-.1.6-.1.17-.1.25-.1.34-.2 0-.1.1-.2.1-.4 0-.1-.1-.3-.18-.4-.1-.1-.25-.2-.51-.2.1-.1.17-.1.26-.2.1-.1.17-.2.34-.4l.26-.4h-.6l-.34.4c-.17.3-.26.4-.34.4 0 .1-.1.1-.1.1h-.44v-.9h-.51zm.51 1.3h.42c.26 0 .43 0 .43.1.1 0 .17 0 .17.1 0 0 .1 0 .1.1s-.1.1-.1.2c-.1.1-.17.1-.26.1h-.76zm10.98-1.3v2.3h.77l.42-1.6.51 1.6h.77v-2.3h-.51v1.8l-.51-1.8h-.51l-.51 1.8v-1.8zm11.84 2.3H67v-1.3c0-.1.1-.3.1-.4s.1-.2.17-.2c.1-.1.17-.1.34-.1.1 0 .26 0 .34.1 0 0 .1.1.1.2v1.7h.6v-1.3c0-.2-.1-.4-.1-.5 0-.2-.1-.2-.17-.3-.1-.1-.17-.2-.26-.2-.17-.1-.34-.1-.51-.1-.25 0-.42 0-.59.1-.1.1-.26.1-.26.2-.1.1-.17.1-.17.2-.1.2-.1.4-.1.6zm11.49-2.3v2.2h.51v-1.9h1.36v-.3zm13.45 0h-.59l-.26.5h-1.02l-.17-.5h-.59l1.02 2.3h.51zm-1.02.9-.34.8-.34-.8zm15.09.2c0 .3.1.4.2.6 0 .1 0 .3.2.4.1 0 .2.1.4.1 0 .1.3.1.5.1.4 0 .6-.1.9-.3s.3-.5.3-.9c0-.3 0-.7-.3-.8-.3-.3-.5-.4-.9-.4s-.7.1-1 .4c-.1.1-.3.5-.3.8m.6 0c0-.2.1-.4.2-.6.1-.1.3-.2.5-.2s.4.1.5.2c.1.2.2.4.2.6 0 .3-.1.5-.2.6-.1.2-.3.2-.5.2s-.4 0-.5-.2c-.1-.1-.2-.3-.2-.6m11.2-1.1v2.3h.5l1.1-1.5v1.5h.5v-2.3h-.5l-1.1 1.5v-1.5zm11.5 0v2.3h1.9v-.4h-1.4v-.5h1.3v-.4h-1.3v-.7h1.5v-.3zm18.1 0v1.9h-.8v.4h2v-.4h-.7v-1.9zm10.4 0v2.3h2v-.4h-1.4v-.5h1.3v-.4h-1.3v-.7h1.4v-.3zm13.7 0h-.6l-.2.5h-1l-.3-.5h-.5l.9 2.3h.6zm-1 .9-.3.8-.4-.8zm10.1-.9v2.3h.8l.5-1.6.5 1.6h.7v-2.3h-.5v1.8l-.5-1.8h-.5l-.5 1.8v-1.8z" style="fill:#fff;fill-opacity:1;fill-rule:evenodd;stroke:none"/></g></svg>
