<svg xmlns="http://www.w3.org/2000/svg" width="53.341mm" height="60.6728" viewBox="0 0 53.341 16.053"><title>Team Penske logo</title><path d="M115.41 104.94h2.0959l-2.9937 5.1523h3.6213l3.0025-5.1693 1.8341-.008.7154-1.1977h-7.5406zm12.272 4.0647h-3.0466l.9172-1.7568h3.0956l.6386-1.0975h-3.1327l.6561-1.2174h3.1337l.7275-1.2016-6.5405-.007-3.5585 6.3969 6.4915-.0286zm5.7923-1.0866-1.5378-.007 1.9392-2.3608zm-2.5742 1.2291h2.359l-.198.9892h3.0414l.9024-6.4576h-3.7292l-5.7168 6.4576h2.4532zm11.2-2.8857-.9596 3.8079 2.5569-.008 3.5447-3.8149-2.2334 3.8231h3.2113l3.6894-6.3772h-4.9223l-2.9094 3.2194.9782-3.2194-4.6563-.006-3.5659 6.3835 3.1104-.008zm-11.204 7.5696-.5137.8488c-.213.3887-.1828.8766.1654 1.1762l2.7704 1.0643c.1644.0504.2315.3104.2128.3757-.1073.3094-.2622.6128-.5229.9465-.1661.2297-.504.3496-.8138.2995-.2138-.0342-.3683-.2215-.301-.4106.1359-.387.5317-.954.525-.9458l-3.519-.0162c.0487.008-.4533.6607-.5997 1.029-.0871.224-.1651.4537-.0871.6868.0956.2837.3775.5324.6868.6019 1.5988.3676 4.3102.2642 5.9408.0593.5415-.0706 1.0453-.3274 1.3554-.73l.805-1.3733c.2594-.436.251-.9702-.5023-1.2421l-2.5206-.9123c-.273-.1013-.2625-.3143-.2042-.4195.127-.2751.2328-.4367.5027-.618.3009-.1958.9895-.1789.9585.1467-.0268.2498-.279.5482-.434.7645l3.5465.007c.3581-.49.755-1.1144.4368-1.6309-.1574-.2473-.476-.3757-.7948-.4297-1.9205-.3065-4.8373-.187-5.8138-.0166-.4445.0861-1.0068.4403-1.2792.7384m-22.859 3.8947h3.3422c.5782 0 1.1762-.1454 1.4746-.641l1.6404-2.7312c.2857-.4936.1637-1.1603-.8975-1.1684l-6.4089-.009-3.7603 6.3754h3.4904l1.119-1.8256m2.9235-3.1037-1.0245 1.6898c-.0769.1361-.1912.2226-.4113.2296h-.7927l1.3702-2.2779h.6738c.3669 0 .2423.2537.1845.3585m12.611 4.8976h3.594l3.7469-6.3422h-3.2046l-1.824 3.1076.2453-3.1076h-3.5455l-3.731 6.3422h3.188l1.7688-3.0152-.2382 3.0152m-11.7.0176h6.5472l.6456-1.1592-3.0286.0116 1.0573-1.7131 2.9305-.0148.6544-1.1335-2.9302.008.767-1.2432h2.9414l.6156-1.1405h-6.4022l-3.798 6.3842m27.989-.0363 1.1317-1.7353.657-.4378.2275 2.1989h3.2999l-.5793-3.6724 4.0344-2.6864-2.7792.0254-3.7091 2.3227 1.4164-2.3481-3.4706-.009-3.7666 6.368 3.538-.0258m5.7348.0363h6.5465l.6438-1.1592-3.0272.0116 1.0573-1.7131 2.9323-.0148.654-1.1335-2.934.008.7698-1.2432h2.9432l.6131-1.1405h-6.4008l-3.798 6.3842" style="fill-rule:evenodd;fill:#231f20" transform="translate(-103.43 -103.68)"/><path d="m107.65 112.38.816-1.3875h48.303l-.7666 1.3875z" style="fill-rule:evenodd;fill:#cf102d" transform="translate(-103.43 -103.68)"/><path d="M154.62 118.88v-.2494h.1704c.0854 0 .1753.0173.1753.1171 0 .1245-.0917.1323-.195.1323zm0 .1051h.1415l.2183.3528h.1366l-.23-.358c.1174-.0167.2102-.079.2102-.2251 0-.1595-.0956-.2297-.2879-.2297h-.3111v.8128h.1224zm-.4244-.0565c0-.3333.2523-.586.5768-.586.3186 0 .5673.2527.5673.586 0 .338-.2487.5916-.5673.5916-.3245 0-.5768-.2536-.5768-.5916m.5768.7088c.3831 0 .7098-.2995.7098-.7088 0-.4035-.3267-.703-.7098-.703-.3905 0-.7183.2995-.7183.703 0 .4093.3278.7088.7183.7088" style="fill:#231f20" transform="translate(-103.43 -103.68)"/></svg>
