<?xml version="1.0" encoding="UTF-8"?>
<!-- Created with Inkscape (http://www.inkscape.org/) -->
<svg width="53.341mm" height="16.053mm" version="1.1" viewBox="0 0 53.341 16.053" xmlns="http://www.w3.org/2000/svg">
<title>Team Penske logo</title>
 <g transform="translate(-103.43 -103.68)">
  <path d="m115.41 104.94h2.0959l-2.9937 5.1523h3.6213l3.0025-5.1693 1.8341-8e-3 0.71543-1.1977h-7.5406zm12.272 4.0647h-3.0466l0.91723-1.7568h3.0956l0.63853-1.0975h-3.1327l0.65617-1.2174h3.1337l0.72743-1.2016-6.5405-7e-3 -3.5585 6.3969 6.4915-0.0286zm5.7923-1.0866-1.5378-7e-3 1.9392-2.3608zm-2.5742 1.2291h2.359l-0.19791 0.98919h3.0413l0.9024-6.4576h-3.7292l-5.7168 6.4576h2.4532l0.88794-0.98919m11.2-2.8857-0.95956 3.8079 2.5569-8e-3 3.5447-3.8149-2.2334 3.8231h3.2113l3.6894-6.3772h-4.9223l-2.9094 3.2194 0.97826-3.2194-4.6563-6e-3 -3.5659 6.3835 3.1104-8e-3zm-11.204 7.5696-0.51364 0.84879c-0.21308 0.38876-0.18274 0.87665 0.16545 1.1762l2.7704 1.0643c0.16439 0.0504 0.23142 0.31044 0.21272 0.37571-0.10724 0.30938-0.26211 0.61277-0.52282 0.9465-0.16615 0.22966-0.50411 0.3496-0.81385 0.29951-0.21379-0.0342-0.3683-0.22155-0.30092-0.41063 0.13582-0.387 0.53163-0.95392 0.52493-0.9458l-3.519-0.0162c0.0487 8e-3 -0.45332 0.66075-0.59972 1.029-0.0871 0.22402-0.1651 0.45368-0.0871 0.68686 0.0956 0.28363 0.37748 0.53234 0.68686 0.60184 1.5988 0.36759 4.3102 0.26423 5.9408 0.0593 0.54151-0.0706 1.0453-0.32738 1.3554-0.7299l0.80504-1.3734c0.25929-0.43604 0.25083-0.97014-0.50236-1.2421l-2.5206-0.91229c-0.27305-0.10125-0.26247-0.31432-0.20426-0.41945 0.127-0.27517 0.23283-0.43674 0.50271-0.61807 0.30092-0.19579 0.98954-0.17886 0.95849 0.14676-0.0268 0.24976-0.27904 0.54821-0.43391 0.76447l3.5465 7e-3c0.35807-0.49001 0.75495-1.1144 0.43674-1.6309-0.15734-0.24729-0.4759-0.3757-0.79481-0.42968-1.9205-0.30656-4.8373-0.18697-5.8138-0.0166-0.4445 0.0861-1.0068 0.44027-1.2792 0.73836m-22.859 3.8947h3.3422c0.5782 0 1.1762-0.14534 1.4746-0.641l1.6404-2.7312c0.28575-0.49354 0.16369-1.1603-0.89747-1.1684l-6.4089-9e-3 -3.7603 6.3754h3.4904l1.119-1.8256m2.9235-3.1037-1.0245 1.6898c-0.0769 0.13617-0.19121 0.2226-0.41134 0.22966h-0.79269l1.3702-2.2779h0.6738c0.36689 0 0.24236 0.25365 0.1845 0.35842m12.611 4.8976h3.5941l3.7468-6.3422h-3.2046l-1.8239 3.1076 0.24518-3.1076h-3.5455l-3.731 6.3422h3.188l1.7688-3.0152-0.23813 3.0152m-11.7 0.0176h6.5472l0.64558-1.1592-3.0286 0.0116 1.0573-1.7131 2.9305-0.0148 0.6544-1.1335-2.9302 8e-3 0.76694-1.2432h2.9415l0.61559-1.1405h-6.4022l-3.798 6.3842m27.989-0.0363 1.1317-1.7353 0.65688-0.43779 0.22754 2.1989h3.2999l-0.57926-3.6724 4.0344-2.6864-2.7792 0.0254-3.7091 2.3227 1.4164-2.3481-3.4706-9e-3 -3.7666 6.368 3.538-0.0258m5.7348 0.0363h6.5465l0.64381-1.1592-3.0272 0.0116 1.0573-1.7131 2.9323-0.0148 0.65405-1.1335-2.934 8e-3 0.76976-1.2432h2.9432l0.61312-1.1405h-6.4008l-3.798 6.3842" style="fill-rule:evenodd;fill:#231f20"/>
  <path d="m107.65 112.38 0.81597-1.3875h48.303l-0.76659 1.3875z" style="fill-rule:evenodd;fill:#cf102d"/>
  <path d="m154.62 118.88v-0.24941h0.1704c0.0854 0 0.17533 0.0173 0.17533 0.11712 0 0.12453-0.0917 0.13229-0.19509 0.13229zm0 0.10513h0.14147l0.21837 0.35278h0.13652l-0.23001-0.35807c0.11748-0.0166 0.21026-0.079 0.21026-0.22507 0-0.15946-0.0956-0.22966-0.28787-0.22966h-0.31115v0.8128h0.12241zm-0.42439-0.0565c0-0.33337 0.25224-0.58596 0.57679-0.58596 0.31856 0 0.56727 0.25259 0.56727 0.58596 0 0.33797-0.24871 0.59161-0.56727 0.59161-0.32455 0-0.57679-0.25364-0.57679-0.59161m0.57679 0.70874c0.38312 0 0.70979-0.29951 0.70979-0.70874 0-0.40357-0.32667-0.70308-0.70979-0.70308-0.39052 0-0.71825 0.29951-0.71825 0.70308 0 0.40923 0.32773 0.70874 0.71825 0.70874" style="fill:#231f20"/>
 </g>
</svg>
