<svg xmlns="http://www.w3.org/2000/svg" width="504.47" height="306.98" viewBox="0 0 378.35 230.24"><path fill="#005ca9" d="M374.54 27.225h-52.381l-9.4965 27.029h15.031v56.839h30.733V54.254h16.113zm-87.25 0-13.104 36.949-9.9361-36.949h-23.153l-9.9361 36.949-13.098-36.949h-31.234l29.482 83.869h25.441l10.922-40.815 10.922 40.815h25.441l29.482-83.869zM178.24 68.041c6.2841-3.9057 10.472-10.832 10.472-18.728 0-12.196-9.9643-22.088-22.257-22.088h-46.034v83.869h50.554c12.315 0 22.301-9.908 22.301-22.133 0-9.6939-6.2898-17.928-15.037-20.921m-32.052-20.013h8.2284c2.4516 0 4.4411 2.5249 4.4411 5.6359s-1.9895 5.6359-4.4411 5.6359h-8.2284zm12.568 44.659h-12.489V80.428h12.489c2.739 0 4.9652 2.7446 4.9652 6.1319 0 3.3871-2.2262 6.1263-4.9652 6.1263M81.214 38.767l-.0338-.0394-59.735-33.28v10.55L4.6782 7.1773v66.797c0 21.636 17.674 39.181 39.485 39.181 4.4298 0 8.685-.7383 12.658-2.0684 1.657.2085 3.3421.3325 5.0554.3325 21.63 0 39.165-17.403 39.165-38.866 0-14.478-7.9862-27.103-19.827-33.787m-37.051 68.432c-18.491 0-33.477-14.874-33.477-33.223v-57.053l18.671 10.302v46.75c0 8.1158 6.628 14.693 14.806 14.693 8.1781 0 14.806-6.577 14.806-14.693 0-6.6842-4.4975-12.309-10.646-14.095v-18.863c16.524 2.0346 29.318 16.012 29.318 32.959 0 18.351-14.992 33.223-33.477 33.223"/><path fill="#8797ab" d="m107.16 147.64 5.7204-15.595H4.9204v15.595z"/><path fill="#eb0a73" d="m161.32 147.64 5.7204-15.595h-54.167l-5.7204 15.595z"/><path fill="#f363b8" d="M374.78 147.64v-15.595H167.05l-5.7204 15.595z"/><path fill="#05233d" d="M354.94 197.35c-7.4733 0-13.538-6.0136-13.538-13.436 0-7.4169 6.0642-13.43 13.538-13.43 7.4789 0 13.543 6.0136 13.543 13.43 0 7.4225-6.0642 13.436-13.543 13.436m0-33.117c-10.956 0-19.833 8.8146-19.833 19.681 0 10.872 8.8767 19.687 19.833 19.687s19.838-8.8146 19.838-19.687c0-10.866-8.8822-19.681-19.838-19.681"/><path fill="#05233d" d="M354.94 191.91c4.4523 0 8.0593-3.5789 8.0593-7.9974 0-4.413-3.607-7.9918-8.0593-7.9918-4.4467 0-8.0537 3.5789-8.0537 7.9918 0 4.4186 3.607 7.9974 8.0537 7.9974M81.964 174.32h24.072c5.3091 0 9.6318 4.2834 9.6318 9.5529h-43.329c0-5.2695 4.3171-9.5529 9.6262-9.5529m24.072-6.3687H81.965c-8.8597 0-16.045 7.1295-16.045 15.921v15.927h6.4193v-9.5586h43.329v9.5586h6.4193v-15.927c0-8.7921-7.1859-15.921-16.051-15.921M194.24 199.8h-6.4193v-31.848h6.4193zm54.57-31.84v24.516l-43.334-24.516h-6.4193v31.848h6.4193v-24.516l43.334 24.516h6.4193V167.96zM142.94 199.8h40.123v-6.3743H142.94c-5.3091 0-9.6262-4.2834-9.6262-9.5529 0-5.2639 4.3172-9.5529 9.6262-9.5529h40.123v-6.3687H142.94c-8.8597 0-16.045 7.1294-16.045 15.921 0 8.7978 7.1859 15.927 16.045 15.927m133.14-6.3592c-5.3091 0-9.6262-4.2889-9.6262-9.5586 0-5.2639 4.3172-9.5529 9.6262-9.5529h40.123v-6.3687H276.08c-8.8597 0-16.045 7.1294-16.045 15.921 0 8.7978 7.1859 15.927 16.045 15.927h40.123v-15.927h-6.4193v9.5586zM11.325 174.32h38.521c2.6545 0 4.8187 2.1417 4.8187 4.7793 0 2.6151-2.1361 4.7511-4.768 4.7736h-38.572zM4.9057 199.8h6.4193v-9.5586h28.292L51.086 199.8h9.9869l-11.475-9.5586h.2367c.0058 0 .0115.006.0115.006 6.2052 0 11.232-4.9934 11.232-11.148 0-6.16-5.0273-11.148-11.232-11.148h-44.94zm50.2803 15.91H70.64c1.0652 0 1.9331.8623 1.9331 1.9162 0 1.0483-.8567 1.9049-1.9162 1.9162h-15.471zm-2.5757 10.218h2.5757v-3.8267h11.345l4.6046 3.8267h4.0072l-4.6046-3.8267h.1014c2.4911 0 4.5031-2.0064 4.5031-4.475s-2.012-4.4694-4.503-4.4694h-18.029zm-8.3753-2.558h-9.66c-2.1304 0-3.8606-1.719-3.8606-3.8324s1.7302-3.8324 3.8606-3.8324h9.66c2.1304 0 3.8606 1.719 3.8606 3.8324s-1.7302 3.8324-3.8606 3.8324m0-10.224h-9.66c-3.5562 0-6.4362 2.8631-6.4362 6.3912s2.88 6.3912 6.4362 6.3912h9.66c3.5506 0 6.4362-2.8631 6.4362-6.3912s-2.8856-6.3912-6.4362-6.3912m112.685 2.564h9.66c2.1248 0 3.8606 1.719 3.8606 3.8324h-17.381c0-2.1134 1.7302-3.8324 3.8606-3.8324m9.66-2.553h-9.66c-3.5562 0-6.4418 2.8575-6.4418 6.3855v6.3855h2.5813v-3.8267h17.381v3.8267h2.5757v-6.3855c0-3.5281-2.8856-6.3855-6.4362-6.3855M107.98 223.37c-2.1304 0-3.8663-1.719-3.8663-3.8324v-6.3855h-2.5757v6.3855c0 3.5281 2.8856 6.3912 6.4418 6.3912h9.6544c3.5562 0 6.4418-2.8631 6.4418-6.3912v-6.3855h-2.5757v6.3855c0 2.1134-1.7302 3.8324-3.8663 3.8324zm-10.938-10.21-8.6906 4.9202-8.6962-4.9202h-2.5757v12.782h2.5757v-9.8403l8.6962 4.9202 8.6906-4.9202v9.8403h2.5757V213.16zm51.508 12.78v-2.5587h-19.963v-10.224h-2.5757v12.782zM4.6737 213.16v12.782h2.5757v-5.1118h17.381v-2.5587H7.2494v-2.553h19.957v-2.5587zm329.3063 2.55h9.66c2.1304 0 3.8606 1.719 3.8606 3.8324h-17.381c0-2.1134 1.7302-3.8324 3.8606-3.8324m9.66-2.553h-9.66c-3.5562 0-6.4362 2.8575-6.4362 6.3855v6.3855h2.5757v-3.8267h17.381v3.8267h2.5757v-6.3855c0-3.5281-2.88-6.3855-6.4362-6.3855m-42.5002.003h-22.538v2.5587h9.9813v10.224h2.5757v-10.224h9.9813zm1.93 0v12.782h22.532v-2.5587h-19.957v-2.553h17.381v-2.5587h-17.381v-2.553h19.957v-2.5587zm68.9 0-8.6906 4.9202-8.6906-4.9202h-2.5757v12.782h2.5757v-9.8403l8.6906 4.9202 8.6906-4.9202v9.8403h2.5757V213.16zm-169.98 10.21h-9.66c-2.1304 0-3.8606-1.719-3.8606-3.8324s1.7302-3.8324 3.8606-3.8324h9.66c2.1304 0 3.8606 1.719 3.8606 3.8324s-1.7302 3.8324-3.8606 3.8324m0-10.224h-9.66c-3.5562 0-6.4362 2.8631-6.4362 6.3912s2.88 6.3912 6.4362 6.3912h9.66c3.5506 0 6.4362-2.8631 6.4362-6.3912s-2.8856-6.3912-6.4362-6.3912m32.82.014v12.782h22.532v-2.5587h-19.957v-2.553h17.381v-2.5587h-17.381v-2.553h19.957v-2.5587zm-4.5 0v9.8403l-17.381-9.8403h-2.5757v12.782h2.5757v-9.8403l17.381 9.8403h2.5757V213.16zm35.27 3.11a.1696.1696 0 0 0 .169-.169.166.166 0 0 0-.169-.1692h-2.2319v.3382zm.0677.9976-.6538-.5242h-1.6457v.5242h-.496v-1.8316h2.7279c.3663 0 .6706.2987.6706.665 0 .3044-.2085.558-.4903.6369l.6312.5298z"/><path fill="#05233d" d="M264.45 218.9c-1.4202 0-2.5699-1.1441-2.5699-2.553 0-1.4034 1.1497-2.553 2.5699-2.553s2.5757 1.1497 2.5757 2.553c0 1.409-1.1554 2.553-2.5757 2.553m0-5.7431c-1.7754 0-3.2182 1.4315-3.2182 3.1899 0 1.764 1.4428 3.1955 3.2182 3.1955s3.2182-1.4315 3.2182-3.1955c0-1.7585-1.4428-3.1899-3.2182-3.1899"/></svg>
