<svg xmlns="http://www.w3.org/2000/svg" id="svg2985" width="1000" height="538"><g id="layer4" style="display:inline"><path id="path3097" d="M284 493v25h12v-13h32v-5h-32v-5c0-1 1.0572-2 2-2h30v-6h-38c-3 0-6 3-6 6z" style="fill:#e20010;fill-opacity:1;stroke:#000;stroke-width:1px;stroke-linecap:butt;stroke-linejoin:miter;stroke-opacity:1"/><path id="path3099" d="M342 487c-2 0-4 2-4 4v23c0 2 3 4 5 4h35c2 0 5-2 5-4v-23c0-2-2.5026-4-4.5026-4z" style="fill:#e20010;fill-opacity:1;stroke:#000;stroke-width:1px;stroke-linecap:butt;stroke-linejoin:miter;stroke-opacity:1"/><path id="path3101" d="M351 492c-1 0-2 1-2 2v16c0 1 1 2 2 2h19c1 0 1.9618-1.058 2-2v-16c0-1-1-2-2-2z" style="fill:#fff;stroke:#000;stroke-width:1px;stroke-linecap:butt;stroke-linejoin:miter;stroke-opacity:1"/><path id="path3103" d="M393 487v31h13v-25h18c1.4142 0 3 2.5858 3 4v1c0 1.6667-1.3333 5-3 5h-15v4h6l10 11h14l-9-11s4.0513-1.6838 5-2c3-1 4-6 4-8v-1c0-3-2.6667-9-6-9z" style="fill:#e20010;fill-opacity:1;stroke:#000;stroke-width:1px;stroke-linecap:butt;stroke-linejoin:miter;stroke-opacity:1"/><path id="path3105" d="M448 487v31h12v-25h9v25h11v-25h7c1 0 2 1 2 2v23h12v-25c0-3-4-6-7-6z" style="fill:#e20010;fill-opacity:1;stroke:#000;stroke-width:1px;stroke-linecap:butt;stroke-linejoin:miter;stroke-opacity:1"/><path id="path3107" d="M509 487v23c0 4 5 8 9 8h29c4 0 9-4 9-8v-23h-12v23c0 1.1768-2 3-3 3h-17c-1 0-3-2-3-3v-23z" style="fill:#e20010;fill-opacity:1;stroke:#000;stroke-width:1px;stroke-linecap:butt;stroke-linejoin:miter;stroke-opacity:1"/><path id="path3109" d="M566 487v23c0 5 4 8 8 8h35v-5h-28c-1 0-3-2-3-3v-23z" style="fill:#e20010;fill-opacity:1;stroke:#000;stroke-width:1px;stroke-linecap:butt;stroke-linejoin:miter;stroke-opacity:1"/><path id="path3111" d="M617 487v31h12v-26h20c1 0 3 2 3 3v7h-19v5h19v11h12v-24c0-3-4-7-7-7z" style="fill:#e20010;fill-opacity:1;stroke:#000;stroke-width:1px;stroke-linecap:butt;stroke-linejoin:miter;stroke-opacity:1"/><path id="path3113" d="M690 487v6h7v20h-7v5h26v-5h-8v-26z" style="fill:#e20010;fill-opacity:1;stroke:#000;stroke-width:1px;stroke-linecap:butt;stroke-linejoin:miter;stroke-opacity:1"/></g><g id="layer2" style="display:inline"><path id="path2995" d="M313.1212 116.9394c-32.7136 15.0203-68.1042 41.3389-88.615 69.9255-17.1244 23.867-30.3863 44.999-23.6558 86.8453-.8778.7022 10.9166 28.7824 21.8516 38.835 12.4638 11.4582 29.5825 17.8599 46.1991 21.104 40.0697 7.8227 77.352 4.8386 122.366-5.2515 17.5943-2.614 46.0547-12.907 93.8393-30.4819 28.8424-10.608 61.2556-20.0448 101.994-22.6431 0 0 12.753.32 19.8907 1.642 11.8458 2.194 24.3628 7.357 18.5885 20.0038-8.9596 19.623-30.9704 28.0453-52.0209 35.125-44.754 15.0517-91.694 19.5724-137.5215 25.1707-.1216.1217 87.4038 2.4077 128.4758-3.254 33.195-4.5759 64.1022-11.1342 95.75-22.1459 25.3705-8.8274 65.4379-25.389 94.0565-58.9355 9.4616-11.0908 16.532-27.3505 6.3193-42.5603-17.3901-25.8992-68.355-21.609-107.9134-13.3792-14.7594 3.0706-29.5798 7.7226-45.6492 12.4369 75.1959-56.6518 152.7832-110.2087 220.1284-177.0202 1.8469-1.4826-50.1445 30.5453-83.1961 48.9845-38.17 21.2947-79.3338 38.5737-121.709 49.7798-23.312 6.1648-47.7633 11.8509-71.7405 9.2929-13.4751-1.4376-29.0349-3.7296-38.3088-13.611-7.4322-7.919-14.8162-17.5544-8.9408-31.3305C511.94 95.2354 534.523 81.432 556.2868 70.985c8.4409-4.0518 11.6988-4.9046 19.216-8.5193 18.0158-8.6634 44.254-15.938 68.7763-22.6151 41.8427-11.3932 82.9745-17.3787 83.4517-17.582 0 0-45.3353.707-67.8698 2.9355-30.4042 3.0067-60.6488 7.8919-90.5738 14.052-24.8302 5.1114-50.1924 11.2206-73.6483 18.9717-41.2784 13.6405-88.8856 30.2294-116.862 57.1653-12.92 12.8678-19.8121 23.6026-23.2121 38.0719-2.3732 10.0993-1.7817 21.6381 2.6711 31.0084 4.044 8.51 13.4861 16.4802 20.3026 19.6668 21.7482 10.1672 45.8841 12.7539 84.6036 13.32-20.645 5.5191-54.2908 16.9802-84.838 19.4865-24.3602 1.9987-50.1938 4.3289-72.2245-7.6707-16.9846-9.251-28.7408-28.2469-27.7567-47.5927 1.243-24.4357 16.7105-46.139 34.7983-64.744z" style="fill:#e20010;stroke:#000;stroke-width:1px;stroke-linecap:butt;stroke-linejoin:miter;stroke-opacity:1;fill-opacity:1"/></g><g id="layer3" style="display:inline"><path id="path3018" d="M107 403v9H51c-5 0-6 3.643-6 6v3c0 2 2 6 7 6h47c5 0 10 6.9861 10 11v10c0 4-6 11-11 11H28v-9h53c2.6034 0 6-3.3966 6-6v-4c0-2.6034-2.3966-5-5-5H38c-6 0-14-8-14-13v-7c0-5 9-12 14-12z" style="fill:#e20010;fill-opacity:1;stroke:#000;stroke-width:1px;stroke-linecap:butt;stroke-linejoin:miter;stroke-opacity:1"/><path id="path3020" d="M125 403v41c0 8.4126 8.1814 15 16 15h53c5.099 0 15.816-3.4078 16-15v-41h-21v37.4422c0 4.4859-3 9.5578-7 9.5578h-28c-5 0-7-5.5356-7-9.558V403z" style="fill:#e20010;fill-opacity:1;stroke:#000;stroke-width:1px;stroke-linecap:butt;stroke-linejoin:miter;stroke-opacity:1"/><path id="path3022" d="M226 403v56h21v-47h38s5 3.3966 5 6v6c0 2.6034-5 6-5 6h-32v9h46c6 0 9.2206-4.32 11-9s1.5903-13.365 0-18-5-9-11-9z" style="fill:#e20010;fill-opacity:1;stroke:#000;stroke-width:1px;stroke-linecap:butt;stroke-linejoin:miter;stroke-opacity:1"/><path id="path3024" d="M326 403v40c0 7.4642 6.536 15.9378 14 16h67v-9l-53.4466-.0201C351 450 348 447 348.029 444.4557L348 412h59v-9z" style="fill:#e20010;fill-opacity:1;stroke:#000;stroke-width:1px;stroke-linecap:butt;stroke-linejoin:miter;stroke-opacity:1"/><path id="path3026" d="M354 427v7h53v-7z" style="fill:#e20010;fill-opacity:1;stroke:#000;stroke-width:1px;stroke-linecap:butt;stroke-linejoin:miter;stroke-opacity:1"/><path id="path3028" d="M423 403v56h22v-47h33c2 0 6 3.3966 6 6v6c0 2-4 6-6 6h-26l-.1146 8.9314L463 439l16 20h27l-17-20c2.7553-.3808 5.376-1.1253 8-2 2.6077-.8692 8-6.286 8-11v-11c0-5.2068-4.7932-12-10-12z" style="fill:#e20010;fill-opacity:1;stroke:#000;stroke-width:1px;stroke-linecap:butt;stroke-linejoin:miter;stroke-opacity:1"/><path id="path3030" d="m557 403-.1534 55.8188L579 459v-47h36c2 0 5 3 5 5v13h-35v9h35v20h22v-43c0-5-10-13-15-13z" style="fill:#e20010;fill-opacity:1;stroke:#000;stroke-width:1px;stroke-linecap:butt;stroke-linejoin:miter;stroke-opacity:1"/><path id="path3032" d="M658 403v42c0 7 8 14 15 14h70v-32h-56v7h34v16h-36c-2 0-5-3-5-5v-33h63v-9z" style="fill:#e20010;fill-opacity:1;stroke:#000;stroke-width:1px;stroke-linecap:butt;stroke-linejoin:miter;stroke-opacity:1"/><path id="path3038" d="M961 403v56h21v-56z" style="fill:#e20010;fill-opacity:1;stroke:#000;stroke-width:1px;stroke-linecap:butt;stroke-linejoin:miter;stroke-opacity:1"/><path id="path3028-5" d="M860 403v56h23v-47h32c2 0 6 3.3966 6 6v6c0 2-4 6-6 6h-26l-.1146 8.9314L900 439l16 20h27l-17-20c2.7553-.3808 5.376-1.1253 8-2 2.6077-.8692 8-5.286 8-10v-13c0-5.2068-5.0446-11-10-11z" style="fill:#e20010;fill-opacity:1;stroke:#000;stroke-width:1px;stroke-linecap:butt;stroke-linejoin:miter;stroke-opacity:1"/><path id="path3020-9" d="M759 403v41c0 8.4126 8.1814 15 16 15h52c5.099 0 15.816-3.4078 16-15v-41h-21v37.4422c0 4.4859-3 9.5578-7 9.5578h-28c-5 0-7-5.5356-7-9.558V403z" style="fill:#e20010;fill-opacity:1;stroke:#000;stroke-width:1px;stroke-linecap:butt;stroke-linejoin:miter;stroke-opacity:1"/></g></svg>
