<svg xmlns="http://www.w3.org/2000/svg" xml:space="preserve" id="svg2" width="219.6932" height="58.7103"><g id="g10" transform="matrix(1.25 0 0 -1.25 -10.9481 150.5363)"><g id="g12" transform="scale(.1)"><path id="path16" d="M365.48 1024.78h-82.507l27.41 69.33h256.695l-27.406-69.33H457.16l-67.945-189.686h-91.676z" style="fill:#2e3192;fill-opacity:1;fill-rule:evenodd;stroke:none"/><path id="path18" d="M1311.3 878.938c-6.62-11.497-27.78-53.856-108.69-53.856-66.46 0-87.54 33.82-80.64 75.195 13.05 78.153 83.07 103.763 129.66 103.763 41.54 0 88.25-21.017 79.31-74.536-1.54-9.195-3.54-19.047-8.55-29.555h-133.64c-3.02-18.058 1.32-33.164 23.71-33.164 15.54 0 25.61 6.242 30.21 12.153zm-47.19 54.835c.63 1.637 1.38 3.938 1.65 5.582 2.14 12.805-5.19 22.985-23.25 22.985-19.15 0-33.55-10.508-41.98-28.567z" style="fill:#2e3192;fill-opacity:1;fill-rule:evenodd;stroke:none"/><path id="path20" d="M1429.7 1099.85h82.51l-106.83-270.498h-82.51z" style="fill:#2e3192;fill-opacity:1;fill-rule:evenodd;stroke:none"/><path id="path22" d="M1549.48 1099.85h82.5l-106.84-270.498h-82.5z" style="fill:#2e3192;fill-opacity:1;fill-rule:evenodd;stroke:none"/><path id="path24" d="M1088.91 1001.54c-20.96 12.54-47.05 7.33-64.73-10.599-7.81-4.91-15.13-10.964-21.02-17.769h-.73l10.59 26.598h-69.36l-67.098-170.418h71.52l28.152 71.257c8.106 20.305 17.231 32.7 29.066 39.789 1.22-18.425 10.19-35.425 25.83-44.785 25.84-15.465 59.72-4.285 75.67 24.965 15.96 29.246 7.95 65.496-17.89 80.962" style="fill:#2e3192;fill-opacity:1;fill-rule:evenodd;stroke:none"/><path id="path26" d="M870.773 1001.54c-20.953 12.54-47.039 7.33-64.722-10.599-7.809-4.91-15.125-10.964-21.024-17.769h-.722l10.582 26.598h-69.356L658.43 829.352h71.523l28.145 71.257c8.109 20.305 17.238 32.7 29.07 39.789 1.219-18.425 10.191-35.425 25.832-44.785 25.84-15.465 59.723-4.285 75.676 24.965 15.953 29.246 7.937 65.496-17.903 80.962" style="fill:#2e3192;fill-opacity:1;fill-rule:evenodd;stroke:none"/><path id="path28" d="m634.934 999.77-65.09-102.118h-.723L550.926 999.77h-72.242l30.043-156.625c-.899-5.383-2.75-8.946-5.27-11.473-18.262 18.449-45.5 24.82-67.375 13.535-26.762-13.809-35.121-48.488-18.68-77.465 16.45-28.976 51.477-41.277 78.243-27.469.71.368 1.261.903 1.949 1.301 24.883 8.184 63.988 58.731 77.515 77.27L709.344 999.77z" style="fill:#2e3192;fill-opacity:1;fill-rule:evenodd;stroke:none"/><path id="path30" d="M231.008 1198.47c-39.988 11.54-69.344 8.23-108.778-31.2-7.222-7.23-11.621-15.47-13.824-24.1-46.156-75.51-18.0193-168.248 109.012-154.783-52.813 20.093-62.719 45.923-49.512 66.013l-2.515 5.26c33.793-8.13 71.863 6.54 91.347 37.61 22.938 36.56 29.387 85.3-25.73 101.2" style="fill:#ed1c24;fill-opacity:1;fill-rule:evenodd;stroke:none"/><path id="path32" d="M1749.52 1190.84c40.03 4.35 73.13-3.54 89.44-39.41 3.45-7.59 4.46-16.31 5.81-24.36 6.12-78.82-65.89-164.117-193.11-146.734 61.19 16.004 83.92 41.004 81.68 62.044l-.66 10.78c-30.45-11.25-58.7 6.27-60.43 38.73-1.7 38.2 27.16 93.5 77.27 98.95" style="fill:#ed1c24;fill-opacity:1;fill-rule:evenodd;stroke:none"/></g></g></svg>
